
<svg fill="#000000" height="24" viewBox="0 0 24 24" width="24" xmlns="http://www.w3.org/2000/svg" xmlns:xlink="http://www.w3.org/1999/xlink">
    <path d="M10.66 2.03L10.98 2.06L11.3 2.1L11.61 2.16L11.92 2.22L12.23 2.3L12.53 2.39L12.82 2.49L13.11 2.61L13.4 2.73L13.68 2.86L13.95 3L14.21 3.15L14.47 3.32L14.72 3.49L14.97 3.67L15.21 3.86L15.44 4.05L15.66 4.26L15.87 4.47L16.07 4.69L16.27 4.92L16.46 5.16L16.63 5.4L16.8 5.65L16.96 5.9L17.11 6.17L17.24 6.43L17.37 6.71L17.49 6.99L17.59 7.27L17.69 7.56L17.77 7.86L17.84 8.16L17.9 8.46L17.94 8.77L17.97 9.08L17.99 9.39L18 9.71L17.99 10.03L17.97 10.34L17.94 10.66L17.9 10.97L17.84 11.28L17.77 11.58L17.69 11.89L17.59 12.2L17.49 12.5L17.37 12.81L17.24 13.12L17.11 13.43L16.96 13.74L16.8 14.05L16.63 14.36L16.46 14.68L16.27 15L16.07 15.32L15.87 15.64L15.66 15.97L15.44 16.3L15.21 16.64L14.97 16.99L14.72 17.33L14.47 17.69L14.21 18.05L13.95 18.41L13.68 18.78L13.4 19.16L13.11 19.55L12.82 19.95L12.53 20.35L12.23 20.76L11.92 21.18L11.61 21.61L11.3 22.05L10.98 22.5L10.66 22.96L10.33 23.43L10 23.91L9.67 23.43L9.34 22.96L9.02 22.5L8.7 22.05L8.39 21.61L8.08 21.18L7.77 20.76L7.47 20.35L7.18 19.95L6.89 19.55L6.6 19.16L6.32 18.78L6.05 18.41L5.79 18.05L5.53 17.69L5.28 17.33L5.03 16.99L4.79 16.64L4.56 16.3L4.34 15.97L4.13 15.64L3.93 15.32L3.73 15L3.54 14.68L3.37 14.36L3.2 14.05L3.04 13.74L2.89 13.43L2.76 13.12L2.63 12.81L2.51 12.5L2.41 12.2L2.31 11.89L2.23 11.58L2.16 11.28L2.1 10.97L2.06 10.66L2.03 10.34L2.01 10.03L2 9.71L2.01 9.39L2.03 9.08L2.06 8.77L2.1 8.46L2.16 8.16L2.23 7.86L2.31 7.56L2.41 7.27L2.51 6.99L2.63 6.71L2.76 6.43L2.89 6.17L3.04 5.9L3.2 5.65L3.37 5.4L3.54 5.16L3.73 4.92L3.93 4.69L4.13 4.47L4.34 4.26L4.56 4.05L4.79 3.86L5.03 3.67L5.28 3.49L5.53 3.32L5.79 3.15L6.05 3L6.32 2.86L6.6 2.73L6.89 2.61L7.18 2.49L7.47 2.39L7.77 2.3L8.08 2.22L8.39 2.16L8.7 2.1L9.02 2.06L9.34 2.03L9.67 2.01L10 2L10.33 2.01L10.66 2.03ZM9.69 5.66L9.54 5.68L9.39 5.7L9.24 5.73L9.09 5.76L8.94 5.8L8.8 5.84L8.66 5.89L8.52 5.94L8.39 6L8.26 6.06L8.13 6.13L8 6.2L7.88 6.28L7.76 6.36L7.65 6.44L7.53 6.53L7.43 6.62L7.32 6.72L7.22 6.82L7.12 6.93L7.03 7.04L6.94 7.15L6.86 7.26L6.78 7.38L6.7 7.5L6.63 7.63L6.57 7.75L6.51 7.88L6.45 8.01L6.4 8.15L6.36 8.29L6.32 8.43L6.29 8.57L6.26 8.71L6.24 8.86L6.22 9L6.21 9.15L6.21 9.3L6.21 9.45L6.22 9.6L6.24 9.75L6.26 9.9L6.29 10.04L6.32 10.18L6.36 10.32L6.4 10.46L6.45 10.59L6.51 10.72L6.57 10.85L6.63 10.98L6.7 11.11L6.78 11.23L6.86 11.35L6.94 11.46L7.03 11.57L7.12 11.68L7.22 11.78L7.32 11.89L7.43 11.98L7.53 12.08L7.65 12.17L7.76 12.25L7.88 12.33L8 12.41L8.13 12.48L8.26 12.55L8.39 12.61L8.52 12.67L8.66 12.72L8.8 12.77L8.94 12.81L9.09 12.85L9.24 12.88L9.39 12.91L9.54 12.93L9.69 12.94L9.84 12.95L10 12.96L10.16 12.95L10.31 12.94L10.46 12.93L10.61 12.91L10.76 12.88L10.91 12.85L11.06 12.81L11.2 12.77L11.34 12.72L11.48 12.67L11.61 12.61L11.74 12.55L11.87 12.48L12 12.41L12.12 12.33L12.24 12.25L12.35 12.17L12.47 12.08L12.57 11.98L12.68 11.89L12.78 11.78L12.88 11.68L12.97 11.57L13.06 11.46L13.14 11.35L13.22 11.23L13.3 11.11L13.37 10.98L13.43 10.85L13.49 10.72L13.55 10.59L13.6 10.46L13.64 10.32L13.68 10.18L13.71 10.04L13.74 9.9L13.76 9.75L13.78 9.6L13.79 9.45L13.79 9.3L13.79 9.15L13.78 9L13.76 8.86L13.74 8.71L13.71 8.57L13.68 8.43L13.64 8.29L13.6 8.15L13.55 8.01L13.49 7.88L13.43 7.75L13.37 7.63L13.3 7.5L13.22 7.38L13.14 7.26L13.06 7.15L12.97 7.04L12.88 6.93L12.78 6.82L12.68 6.72L12.57 6.62L12.47 6.53L12.35 6.44L12.24 6.36L12.12 6.28L12 6.2L11.87 6.13L11.74 6.06L11.61 6L11.48 5.94L11.34 5.89L11.2 5.84L11.06 5.8L10.91 5.76L10.76 5.73L10.61 5.7L10.46 5.68L10.31 5.66L10.16 5.65L10 5.65L9.84 5.65L9.69 5.66Z"></path>
    <path d="M0 0h24v24H0z" fill="none"/>
</svg>