<?xml version="1.0" encoding="utf-8" standalone="no"?>
<svg width="100%" height="100%" preserveAspectRatio="xMidYMid" xmlns="http://www.w3.org/2000/svg" xmlns:xlink="http://www.w3.org/1999/xlink" xmlns:xml="http://www.w3.org/XML/1998/namespace" version="1.1">
  <title id="title4138">Vorlage</title>
  <defs id="defs4">
    <linearGradient x1="0%" y1="0%" x2="100%" y2="0%" gradientUnits="objectBoundingBox" id="linearGradient6303" paint="solid">
      <stop offset="0%" stop-color="#000000" stop-opacity="1" id="stop6305" />
    </linearGradient>
    <clipPath clipPathUnits="userSpaceOnUse" id="clipPath254">
      <path d="M540.96 769.8 L540.96 210.96 L54.00003 210.96 L54.00003 769.8 L540.96 769.8 z" clip-rule="evenOdd" id="path256" connector-curvature="0" />
    </clipPath>
  </defs>
  <namedview id="base" pagecolor="#ffffff" bordercolor="#666666" borderopacity="1.0" pageopacity="0.0" pageshadow="2" zoom="2" cx="373.09444" cy="935.74131" document-units="px" current-layer="layer1" showgrid="true" objecttolerance="10" gridtolerance="10" window-width="1920" window-height="1017" window-x="-8" window-y="-8" window-maximized="1" object-nodes="true" snap-smooth-nodes="true" snap-midpoints="false" snap-intersection-paths="false" object-paths="false" snap-nodes="true">
    <grid id="grid4136" type="axonomgrid" units="px" empspacing="5" spacingy="20.000001" />
  </namedview>
  <metadata id="metadata7"></metadata>
  <g transform="matrix(1, 0, 0, 1, -710.1409, -11.55457)" id="g4717" stroke="#000000" style="fill:#000000;">
    <path d="M173.2051 12.36219 C173.2051 52.36219 173.2051 52.36219 173.2051 52.36219" transform="translate(554.2563, 40)" id="path4143-8" fill-rule="evenOdd" stroke-width="2" connector-curvature="0" style="fill:none;" />
    <g id="g5089">
      <text text-anchor="middle" xml:space="preserve" x="727.1191" y="44.24796" letter-spacing="0px" word-spacing="0px" id="text4179" stroke-width="1px" font-family="sans-serif" font-size="19.80658px" font-style="normal" font-weight="400" linespacing="125%" line-height="125%" text-align="center">
        <tspan x="727.1191" y="44.24796" id="tspan4181" role="line">25</tspan>
      </text>
      <path d="M258.0247 18.623 A15.93547 15.3807 0 0 1 244.7075 36.14524 A15.93547 15.3807 0 0 1 226.5283 23.32454 A15.93547 15.3807 0 0 1 239.7773 5.754189 A15.93547 15.3807 0 0 1 258.0063 18.50896" transform="translate(485.1894, 16.03624)" id="path4145-7-74" stroke-width="1.84007" type="arc" cx="242.27197" cy="20.945251" rx="15.935473" ry="15.380697" start="6.1316209" end="6.124116" open="true" style="fill:none;" />
      <rect x="710.1409" y="11.55457" width="34.64102" height="80" id="rect4711" stroke-width="0.8944272" stroke-opacity="0" style="fill:none;" />
    </g>
  </g>
</svg>